<svg xmlns="http://www.w3.org/2000/svg" width="60" height="60"><defs><clipPath id="a"><circle data-name="楕円形 3" cx="30" cy="30" r="30" transform="translate(420 3993)" fill="#fff" stroke="#707070"/></clipPath></defs><g data-name="マスクグループ 1" transform="translate(-420 -3993)" clip-path="url(#a)"><g data-name="レイヤー 3"><path data-name="長方形 26" fill="#f5eaea" d="M420 3993h60v60h-60z"/></g><g data-name="レイヤー 2" fill="#505050"><path data-name="パス 38" d="M447.36 4023.98h2.27l-1.13-3.69z"/><path data-name="パス 39" d="M459.72 4010.5h-19.44a2.79 2.79 0 00-2.78 2.78v19.44a2.79 2.79 0 002.78 2.78h19.44a2.79 2.79 0 002.78-2.78v-19.44a2.79 2.79 0 00-2.78-2.78zm-8.85 17.5l-.66-2.16h-3.42l-.67 2.16h-2l3.16-9.24h2.41L453 4028zm4.87 0h-1.84v-7h1.84zm-1-7.71a1.125 1.125 0 11.03 0z"/></g></g></svg>