<svg xmlns="http://www.w3.org/2000/svg" width="60" height="60"><defs><clipPath id="a"><circle data-name="楕円形 3" cx="30" cy="30" r="30" transform="translate(420 3993)" fill="#fff" stroke="#707070"/></clipPath></defs><g data-name="マスクグループ 1" transform="translate(-420 -3993)" clip-path="url(#a)"><g data-name="レイヤー 3"><path data-name="長方形 26" fill="#f5eaea" d="M420 3993h60v60h-60z"/></g><g data-name="レイヤー 2" fill="#505050"><path data-name="パス 38" d="M446 4020.24v2.69c.62 0 2.55.05 2.55-1.4s-1.97-1.35-2.55-1.29z"/><path data-name="パス 39" d="M459.72 4010.5h-19.44a2.79 2.79 0 00-2.78 2.78v19.44a2.79 2.79 0 002.78 2.78h19.44a2.79 2.79 0 002.78-2.78v-19.44a2.79 2.79 0 00-2.78-2.78zm-9.39 11.24c0 2.51-2.69 2.8-4 2.8H446v2.64h-1.85v-8.57h2.13c1.22 0 4 .28 4 2.86zm2.78 5.65a5.17 5.17 0 01-2-.42v-1.64a8.45 8.45 0 002.05.6c.76.06.88-.28.88-.53s-.53-.5-1-.64-1.67-.71-1.85-1.47a2 2 0 01.46-1.92c.41-.46 1.77-1.16 3.81-.42v1.63c-1.82-.81-2.54-.49-2.62-.2s.06.57.67.76 2.5.87 2.29 2.39-1.59 1.86-2.69 1.86z"/></g></g></svg>