<svg xmlns="http://www.w3.org/2000/svg" width="60" height="60"><defs><clipPath id="a"><circle data-name="楕円形 3" cx="30" cy="30" r="30" transform="translate(420 3993)" fill="#fff" stroke="#707070"/></clipPath></defs><g data-name="マスクグループ 1" transform="translate(-420 -3993)" clip-path="url(#a)"><g data-name="レイヤー 3"><path data-name="長方形 26" fill="#f5eaea" d="M420 3993h60v60h-60z"/></g><g data-name="レイヤー 2" fill="#505050"><path data-name="パス 38" d="M452.48 4024.15c0 2.17 2.16 1.61 2.16 1.61v-3.22c-.64-.09-2.16-.14-2.16 1.61z"/><path data-name="パス 39" d="M459.72 4010.5h-19.44a2.79 2.79 0 00-2.78 2.78v19.44a2.79 2.79 0 002.78 2.78h19.44a2.79 2.79 0 002.78-2.78v-19.44a2.79 2.79 0 00-2.78-2.78zm-11 16.62l-1.57-2.9-1.57 2.9h-1.86l2.38-3.87-2.28-3.88h1.91l1.53 2.93 1.53-2.93h1.78l-2.3 3.78 2.45 4zm7.59-.35c-4 1.44-5.22-.68-5.43-1.82a3.18 3.18 0 011.35-3.31 3.71 3.71 0 012.44-.47v-2.42h1.64z"/></g></g></svg>