<svg xmlns="http://www.w3.org/2000/svg" width="60" height="60"><defs><clipPath id="a"><circle data-name="楕円形 3" cx="30" cy="30" r="30" transform="translate(420 3993)" fill="#fff" stroke="#707070"/></clipPath></defs><g data-name="マスクグループ 1" transform="translate(-420 -3993)" clip-path="url(#a)"><g data-name="レイヤー 3"><path data-name="長方形 26" fill="#f5eaea" d="M420 3993h60v60h-60z"/></g><g data-name="レイヤー 2" fill="#505050"><path data-name="パス 38" d="M444 4020.51v5c.64.06 3.22.17 3.22-2.49s-2.56-2.57-3.22-2.51z"/><path data-name="パス 39" d="M459.72 4010.5h-19.44a2.79 2.79 0 00-2.78 2.78v19.44a2.79 2.79 0 002.78 2.78h19.44a2.79 2.79 0 002.78-2.78v-19.44a2.79 2.79 0 00-2.78-2.78zm-15.23 16.5h-2.07v-8h2.13c1.27 0 4.44.41 4.44 4s-3.27 4-4.5 4zm11.51 0h-1.72l-.89-4.17-.88 4.17h-1.73l-1.58-6.15h1.45l1 4.36.85-4.36h1.86l.86 4.36 1-4.36h1.45z"/></g></g></svg>