<svg id="レイヤー_2" data-name="レイヤー 2" xmlns="http://www.w3.org/2000/svg" viewBox="0 0 240.94 240.94"><defs><style>.cls-1{fill:#505050}</style></defs><circle class="cls-1" cx="84.32" cy="104.65" r="10.87" transform="rotate(-67.5 84.001 104.716)"/><circle class="cls-1" cx="157.51" cy="104.4" r="10.87"/><circle class="cls-1" cx="120.97" cy="113.77" r="5.03"/><path class="cls-1" d="M241.19 41.2A36.12 36.12 0 00178 17.35a104.3 104.3 0 00-114.45 0 36.12 36.12 0 10-41.42 57 96.76 96.76 0 00-3.31 25.16c0 21 6.63 36.28 20.19 46.33V179a92.53 92.53 0 00-11.24 44.35c0 1.41 0 2.77.09 4.1h-5.3c0 4.53 2.65 8.55 6.7 11.07a18.48 18.48 0 009.74 2.67h164.47a18.71 18.71 0 008.61-2.06c4.69-2.44 7.85-6.78 7.85-11.72h-6.31c.06-1.33.09-2.69.09-4.1a92.64 92.64 0 00-10.28-42.55v-35.63c12.89-10 19.2-25.09 19.2-45.59a97.18 97.18 0 00-3.3-25.16 36.3 36.3 0 0021.86-33.18zM40.66 227.41c-.07-1.3-.11-2.66-.11-4.1 0-1.23 0-2.45.09-3.67 2.68 4.58 8.3 7.77 14.77 7.77zm93.08-47.16a13 13 0 01.71 4.25c0 7.38-6.15 8-13.73 8s-13.74-.61-13.74-8a13 13 0 01.71-4.25 4.25 4.25 0 114.56-6.26 14.05 14.05 0 0116.94 0 4.24 4.24 0 114.55 6.26zm67 47.16H187a17.26 17.26 0 0013.83-6.41v2.31c.05 1.44.01 2.8-.06 4.1zm8.95-163.9l-7.44 1.54 2.48 7.17a83.55 83.55 0 014.57 27.32c0 13.31-3 23.09-9 30.25A17.58 17.58 0 00187 124H55.41a17.38 17.38 0 00-13.84 6.38c-6.32-7.21-9.46-17.16-9.46-30.84a83.59 83.59 0 014.57-27.32l2.48-7.17-7.43-1.54a22.78 22.78 0 1124.44-33.58L60 36.55l6-4.62a90.77 90.77 0 01109.42 0l6.06 4.62 3.78-6.62a22.78 22.78 0 1124.45 33.58z" transform="translate(-.25 -.25)"/></svg>