<svg id="レイヤー_2" data-name="レイヤー 2" xmlns="http://www.w3.org/2000/svg" viewBox="0 0 240.94 240.94"><defs><style>.cls-1{fill:#505050;}</style></defs><circle class="cls-1" cx="84.32" cy="104.65" r="10.87" transform="translate(-44.89 142.25) rotate(-67.5)"/><circle class="cls-1" cx="157.51" cy="104.4" r="10.87"/><circle class="cls-1" cx="120.97" cy="113.77" r="5.03"/><path class="cls-1" d="M241.19,41.2A36.12,36.12,0,0,0,178,17.35a104.3,104.3,0,0,0-114.45,0,36.12,36.12,0,1,0-41.42,57,96.76,96.76,0,0,0-3.31,25.16c0,21,6.63,36.28,20.19,46.33V179a92.53,92.53,0,0,0-11.24,44.35c0,1.41,0,2.77.09,4.1h-5.3c0,4.53,2.65,8.55,6.7,11.07A18.48,18.48,0,0,0,39,241.19H203.47a18.71,18.71,0,0,0,8.61-2.06c4.69-2.44,7.85-6.78,7.85-11.72h-6.31c.06-1.33.09-2.69.09-4.1a92.64,92.64,0,0,0-10.28-42.55l0-35.63c12.89-10,19.2-25.09,19.2-45.59a97.18,97.18,0,0,0-3.3-25.16A36.3,36.3,0,0,0,241.19,41.2ZM40.66,227.41c-.07-1.3-.11-2.66-.11-4.1,0-1.23,0-2.45.09-3.67,2.68,4.58,8.3,7.77,14.77,7.77Zm93.08-47.16a13,13,0,0,1,.71,4.25c0,7.38-6.15,8-13.73,8s-13.74-.61-13.74-8a13,13,0,0,1,.71-4.25,4.25,4.25,0,1,1,4.56-6.26,14.05,14.05,0,0,1,16.94,0,4.24,4.24,0,1,1,4.55,6.26Zm67,47.16H187A17.26,17.26,0,0,0,200.83,221c0,.77,0,1.54,0,2.31C200.88,224.75,200.84,226.11,200.77,227.41Zm8.95-163.9-7.44,1.54,2.48,7.17a83.55,83.55,0,0,1,4.57,27.32c0,13.31-3,23.09-9,30.25A17.58,17.58,0,0,0,187,124H55.41a17.38,17.38,0,0,0-13.84,6.38c-6.32-7.21-9.46-17.16-9.46-30.84a83.59,83.59,0,0,1,4.57-27.32l2.48-7.17-7.43-1.54A22.78,22.78,0,1,1,56.17,29.93L60,36.55,66,31.93a90.77,90.77,0,0,1,109.42,0l6.06,4.62,3.78-6.62a22.78,22.78,0,1,1,24.45,33.58Z" transform="translate(-0.25 -0.25)"/></svg>