<svg xmlns="http://www.w3.org/2000/svg" width="60" height="60"><defs><clipPath id="a"><circle data-name="楕円形 3" cx="30" cy="30" r="30" transform="translate(420 3993)" fill="#fff" stroke="#707070"/></clipPath></defs><g data-name="マスクグループ 1" transform="translate(-420 -3993)" clip-path="url(#a)"><g data-name="レイヤー 3"><path data-name="長方形 26" fill="#f5eaea" d="M420 3993h60v60h-60z"/></g><g data-name="レイヤー 2" fill="#505050"><path data-name="パス 38" d="M459.72 4011.5a1.78 1.78 0 011.78 1.78v19.44a1.78 1.78 0 01-1.78 1.78h-19.44a1.78 1.78 0 01-1.78-1.78v-19.44a1.78 1.78 0 011.78-1.78h19.44m0-1h-19.44a2.79 2.79 0 00-2.78 2.78v19.44a2.79 2.79 0 002.78 2.78h19.44a2.79 2.79 0 002.78-2.78v-19.44a2.79 2.79 0 00-2.78-2.78z"/><path data-name="パス 39" d="M452.15 4023.62v-.62h-1.84v6.65a.91.91 0 01-1 .8c-.83 0-1.14-.93-1.14-.93s-1 .52-1.42.79a2.79 2.79 0 002.74 1.69 2.45 2.45 0 002.66-2.45z"/><path data-name="パス 40" d="M457.48 4025.31l1.4-.91a2.86 2.86 0 00-2.62-1.4 2.42 2.42 0 00-2.59 2.58 2.67 2.67 0 001.86 2.35c1 .43 2.15.81 2.15 1.68s-2.2 1.51-3.06-.26l-1.52.86a3.37 3.37 0 003.2 1.85c2.43 0 3.21-1.55 3.21-2.54a3.16 3.16 0 00-2.51-2.87c-2.17-.7-1.75-2-.7-2.11.76-.07 1.18.77 1.18.77z"/></g></g></svg>