<svg xmlns="http://www.w3.org/2000/svg" xmlns:xlink="http://www.w3.org/1999/xlink" width="60" height="60" viewBox="0 0 60 60">
  <defs>
    <clipPath id="clip-path">
      <circle id="楕円形_3" data-name="楕円形 3" cx="30" cy="30" r="30" transform="translate(420 3993)" fill="#fff" stroke="#707070" stroke-width="1"/>
    </clipPath>
  </defs>
  <g id="マスクグループ_1" data-name="マスクグループ 1" transform="translate(-420 -3993)" clip-path="url(#clip-path)">
    <g id="js" transform="translate(420 3993)">
      <g id="レイヤー_3" data-name="レイヤー 3">
        <rect id="長方形_26" data-name="長方形 26" width="60" height="60" fill="#f5eaea"/>
      </g>
      <g id="レイヤー_2" data-name="レイヤー 2">
        <path id="パス_38" data-name="パス 38" d="M39.72,18.5a1.78,1.78,0,0,1,1.78,1.78V39.72a1.78,1.78,0,0,1-1.78,1.78H20.28a1.78,1.78,0,0,1-1.78-1.78V20.28a1.78,1.78,0,0,1,1.78-1.78H39.72m0-1H20.28a2.79,2.79,0,0,0-2.78,2.78V39.72a2.79,2.79,0,0,0,2.78,2.78H39.72a2.79,2.79,0,0,0,2.78-2.78V20.28A2.79,2.79,0,0,0,39.72,17.5Z" fill="#505050"/>
        <path id="パス_39" data-name="パス 39" d="M32.15,30.62V30H30.31v6.65a.91.91,0,0,1-1,.8c-.83,0-1.14-.93-1.14-.93s-1,.52-1.42.79A2.79,2.79,0,0,0,29.49,39a2.45,2.45,0,0,0,2.66-2.45Z" fill="#505050"/>
        <path id="パス_40" data-name="パス 40" d="M37.48,32.31l1.4-.91A2.86,2.86,0,0,0,36.26,30a2.42,2.42,0,0,0-2.59,2.58,2.67,2.67,0,0,0,1.86,2.35c1,.43,2.15.81,2.15,1.68s-2.2,1.51-3.06-.26l-1.52.86a3.37,3.37,0,0,0,3.2,1.85c2.43,0,3.21-1.55,3.21-2.54A3.16,3.16,0,0,0,37,33.65c-2.17-.7-1.75-2-.7-2.11C37.06,31.47,37.48,32.31,37.48,32.31Z" fill="#505050"/>
      </g>
    </g>
  </g>
</svg>
