<svg xmlns="http://www.w3.org/2000/svg" width="1366" height="768"><defs><clipPath id="a"><path d="M0 0h1366v768H0z"/></clipPath></defs><g clip-path="url(#a)"><path data-name="長方形 12" fill="#fefefe" d="M.069 0h1366v768H.069z"/><path data-name="長方形 13" fill="#f5eaea" d="M.069 0h1366v768H.069z"/><g data-name="グループ 47" fill="none" stroke="#505050"><path data-name="線 8" d="M1195 76l32 32"/><path data-name="線 9" d="M1227 76l-32 32"/></g><text data-name="COPYRIGHTⒸYUMATAKAHASHI.JP" transform="translate(600.069 569)" fill="#505050" font-size="10" font-family="Abel-Regular, Abel" letter-spacing=".1em"><tspan x="7.67" y="11">COPYRIGHT</tspan><tspan y="11" font-family="SegoeUISymbol, Segoe UI Symbol">Ⓒ</tspan><tspan y="11">YUMATAKAHASHI.JP</tspan></text><path data-name="線 1" fill="none" stroke="#dcdcdc" d="M578.569 259.5h214"/><path data-name="線 2" fill="none" stroke="#dcdcdc" d="M604.569 302.5H767.5"/><path data-name="線 13" fill="none" stroke="#dcdcdc" d="M604.569 345.5h144"/><path data-name="線 12" fill="none" stroke="#dcdcdc" d="M588.569 388.5h221"/><path data-name="線 11" fill="none" stroke="#dcdcdc" d="M581.569 431.5h156"/><path data-name="線 10" fill="none" stroke="#dcdcdc" d="M605.569 474.5h146"/><text transform="translate(513.069 248)" fill="#505050" font-size="18" font-family="Abel-Regular, Abel" letter-spacing=".1em"><tspan x="0" y="18">HOME</tspan></text><text transform="translate(513.069 291)" fill="#505050" font-size="18" font-family="Abel-Regular, Abel" letter-spacing=".1em"><tspan x="0" y="18">CONCEPT</tspan></text><text transform="translate(513.069 334)" fill="#505050" font-size="18" font-family="Abel-Regular, Abel" letter-spacing=".1em"><tspan x="0" y="18">SERVICE</tspan></text><text transform="translate(513.069 377)" fill="#505050" font-size="18" font-family="Abel-Regular, Abel" letter-spacing=".1em"><tspan x="0" y="18">WORKS</tspan></text><text transform="translate(513.069 420)" fill="#505050" font-size="18" font-family="Abel-Regular, Abel" letter-spacing=".1em"><tspan x="0" y="18">ABOUT</tspan></text><text transform="translate(513.069 463)" fill="#505050" font-size="18" font-family="Abel-Regular, Abel" letter-spacing=".1em"><tspan x="0" y="18">CONTACT</tspan></text><text transform="translate(748.069 248)" fill="#505050" font-size="13" font-family="NotoSansJP-Regular, Noto Sans JP" letter-spacing=".1em"><tspan x="62.79" y="15">ホーム</tspan></text><text transform="translate(748.069 291)" fill="#505050" font-size="13" font-family="NotoSansJP-Regular, Noto Sans JP" letter-spacing=".1em"><tspan x="33.8" y="15">コンセプト</tspan></text><text transform="translate(748.069 334)" fill="#505050" font-size="13" font-family="NotoSansJP-Regular, Noto Sans JP" letter-spacing=".1em"><tspan x="19.5" y="15">サービス内容</tspan></text><text transform="translate(748.069 377)" fill="#505050" font-size="13" font-family="NotoSansJP-Regular, Noto Sans JP" letter-spacing=".1em"><tspan x="76.7" y="15">実績</tspan></text><text transform="translate(748.069 420)" fill="#505050" font-size="13" font-family="NotoSansJP-Regular, Noto Sans JP" letter-spacing=".1em"><tspan x="5.59" y="15">わたしについて</tspan></text><text transform="translate(748.069 463)" fill="#505050" font-size="13" font-family="NotoSansJP-Regular, Noto Sans JP" letter-spacing=".1em"><tspan x="19.5" y="15">お問い合わせ</tspan></text><path data-name="前面オブジェクトで型抜き 1" d="M1366 769.074H0V587.261l1366 151.271v30.541z" fill="#e2beba" opacity=".62"/><path data-name="長方形 19" fill="#e2beba" d="M603 198h160v10H603z"/><text transform="translate(514.069 165)" fill="#505050" font-size="40" font-family="Spinnaker-Regular, Spinnaker" letter-spacing=".275em"><tspan x="89.367" y="38">MENU</tspan></text></g></svg>