<svg xmlns="http://www.w3.org/2000/svg" xmlns:xlink="http://www.w3.org/1999/xlink" width="60" height="60" viewBox="0 0 60 60">
  <defs>
    <clipPath id="clip-path">
      <circle id="楕円形_3" data-name="楕円形 3" cx="30" cy="30" r="30" transform="translate(420 3993)" fill="#fff" stroke="#707070" stroke-width="1"/>
    </clipPath>
  </defs>
  <g id="マスクグループ_1" data-name="マスクグループ 1" transform="translate(-420 -3993)" clip-path="url(#clip-path)">
    <g id="Ps" transform="translate(420 3993)">
      <g id="レイヤー_3" data-name="レイヤー 3">
        <rect id="長方形_26" data-name="長方形 26" width="60" height="60" fill="#f5eaea"/>
      </g>
      <g id="レイヤー_2" data-name="レイヤー 2">
        <path id="パス_38" data-name="パス 38" d="M26,27.24v2.69c.62,0,2.55.05,2.55-1.4S26.58,27.18,26,27.24Z" fill="#505050"/>
        <path id="パス_39" data-name="パス 39" d="M39.72,17.5H20.28a2.79,2.79,0,0,0-2.78,2.78V39.72a2.79,2.79,0,0,0,2.78,2.78H39.72a2.79,2.79,0,0,0,2.78-2.78V20.28A2.79,2.79,0,0,0,39.72,17.5ZM30.33,28.74c0,2.51-2.69,2.8-4,2.8H26v2.64H24.15V25.61h2.13c1.22,0,4,.28,4,2.86Zm2.78,5.65a5.17,5.17,0,0,1-2-.42V32.33a8.45,8.45,0,0,0,2.05.6c.76.06.88-.28.88-.53s-.53-.5-1-.64-1.67-.71-1.85-1.47a2,2,0,0,1,.46-1.92c.41-.46,1.77-1.16,3.81-.42v1.63c-1.82-.81-2.54-.49-2.62-.2s.06.57.67.76,2.5.87,2.29,2.39S34.21,34.39,33.11,34.39Z" fill="#505050"/>
      </g>
    </g>
  </g>
</svg>
