<svg xmlns="http://www.w3.org/2000/svg" xmlns:xlink="http://www.w3.org/1999/xlink" width="60" height="60" viewBox="0 0 60 60">
  <defs>
    <clipPath id="clip-path">
      <circle id="楕円形_3" data-name="楕円形 3" cx="30" cy="30" r="30" transform="translate(420 3993)" fill="#fff" stroke="#707070" stroke-width="1"/>
    </clipPath>
  </defs>
  <g id="マスクグループ_1" data-name="マスクグループ 1" transform="translate(-420 -3993)" clip-path="url(#clip-path)">
    <g id="WordPress" transform="translate(420 3993)">
      <g id="レイヤー_3" data-name="レイヤー 3">
        <rect id="長方形_26" data-name="長方形 26" width="60" height="60" fill="#f5eaea"/>
      </g>
      <g id="レイヤー_2" data-name="レイヤー 2">
        <path id="パス_38" data-name="パス 38" d="M30,18.5A11.5,11.5,0,1,0,41.5,30,11.5,11.5,0,0,0,30,18.5ZM20.3,30a9.66,9.66,0,0,1,.83-3.92l4.69,12.66A9.68,9.68,0,0,1,20.3,30ZM30,39.7a9.49,9.49,0,0,1-2.68-.39l2.92-8.37,3,8.2A9.87,9.87,0,0,1,30,39.7Zm1.29-14.12s.35-.06.58-.07c.47,0,1,0,1-.49s-.85-.26-1.61-.27c-.42,0-3.13,0-3.86-.11s-.61.85,0,.87h.85l1.53,4.19L27.6,36,24.08,25.45a3.13,3.13,0,0,1,.52,0,1.51,1.51,0,0,0,.77-.11.37.37,0,0,0,0-.63c-.25-.19-.76,0-1.46.05s-2,0-2.09,0A9.67,9.67,0,0,1,36.59,22.9h-.08a1.72,1.72,0,0,0-1.67,1.86c0,1.83,2.47,2.71,1.67,5.48s-1.67,5.64-1.67,5.64ZM35,38.31l3-8.76a11,11,0,0,0,.59-4.1h0A9.67,9.67,0,0,1,35,38.31Z" fill="none"/>
        <path id="パス_39" data-name="パス 39" d="M34.84,24.79a1.72,1.72,0,0,1,1.67-1.86h.08a9.67,9.67,0,0,0-14.74,1.86h2.09c.68,0,1.21-.24,1.46-.05a.37.37,0,0,1,0,.63,1.51,1.51,0,0,1-.77.11,3.13,3.13,0,0,0-.52,0L27.6,36l2.2-6.32-1.53-4.19h-.85c-.61,0-.73-1,0-.87s3.44.11,3.86.11c.76,0,1.61-.26,1.61.27s-.55.48-1,.49a3.78,3.78,0,0,0-.58.07l3.55,10.33s.84-2.8,1.67-5.64S34.88,26.62,34.84,24.79Z" fill="#505050"/>
        <path id="パス_40" data-name="パス 40" d="M20.3,30a9.68,9.68,0,0,0,5.52,8.74L21.13,26.08A9.66,9.66,0,0,0,20.3,30Z" fill="#505050"/>
        <path id="パス_41" data-name="パス 41" d="M27.32,39.31A9.49,9.49,0,0,0,30,39.7a9.87,9.87,0,0,0,3.23-.56l-3-8.2Z" fill="#505050"/>
        <path id="パス_42" data-name="パス 42" d="M38.56,25.44h0a11,11,0,0,1-.59,4.1l-3,8.76a9.67,9.67,0,0,0,3.59-12.87Z" fill="#505050"/>
        <path id="パス_43" data-name="パス 43" d="M30,17.5A12.5,12.5,0,1,0,42.5,30,12.5,12.5,0,0,0,30,17.5Zm0,24A11.5,11.5,0,1,1,41.5,30,11.5,11.5,0,0,1,30,41.5Z" fill="#505050"/>
      </g>
    </g>
  </g>
</svg>
