<svg xmlns="http://www.w3.org/2000/svg" width="60" height="60"><defs><clipPath id="a"><circle data-name="楕円形 3" cx="30" cy="30" r="30" transform="translate(420 3993)" fill="#fff" stroke="#707070"/></clipPath></defs><g data-name="マスクグループ 1" transform="translate(-420 -3993)" clip-path="url(#a)"><g data-name="レイヤー 3"><path data-name="長方形 26" fill="#f5eaea" d="M420 3993h60v60h-60z"/></g><g data-name="レイヤー 2"><path data-name="パス 38" d="M450 4011.5a11.5 11.5 0 1011.5 11.5 11.5 11.5 0 00-11.5-11.5zm-9.7 11.5a9.66 9.66 0 01.83-3.92l4.69 12.66a9.68 9.68 0 01-5.52-8.74zm9.7 9.7a9.49 9.49 0 01-2.68-.39l2.92-8.37 3 8.2a9.87 9.87 0 01-3.24.56zm1.29-14.12s.35-.06.58-.07c.47 0 1 0 1-.49s-.85-.26-1.61-.27c-.42 0-3.13 0-3.86-.11s-.61.85 0 .87h.85l1.53 4.19-2.18 6.3-3.52-10.55a3.13 3.13 0 01.52 0 1.51 1.51 0 00.77-.11.37.37 0 000-.63c-.25-.19-.76 0-1.46.05s-2 0-2.09 0a9.67 9.67 0 0114.77-1.86h-.08a1.72 1.72 0 00-1.67 1.86c0 1.83 2.47 2.71 1.67 5.48s-1.67 5.64-1.67 5.64zm3.71 12.73l3-8.76a11 11 0 00.59-4.1 9.67 9.67 0 01-3.59 12.86z" fill="none"/><path data-name="パス 39" d="M454.84 4017.79a1.72 1.72 0 011.67-1.86h.08a9.67 9.67 0 00-14.74 1.86h2.09c.68 0 1.21-.24 1.46-.05a.37.37 0 010 .63 1.51 1.51 0 01-.77.11 3.13 3.13 0 00-.52 0l3.49 10.52 2.2-6.32-1.53-4.19h-.85c-.61 0-.73-1 0-.87s3.44.11 3.86.11c.76 0 1.61-.26 1.61.27s-.55.48-1 .49a3.78 3.78 0 00-.58.07l3.55 10.33s.84-2.8 1.67-5.64-1.65-3.63-1.69-5.46z" fill="#505050"/><path data-name="パス 40" d="M440.3 4023a9.68 9.68 0 005.52 8.74l-4.69-12.66a9.66 9.66 0 00-.83 3.92z" fill="#505050"/><path data-name="パス 41" d="M447.32 4032.31a9.49 9.49 0 002.68.39 9.87 9.87 0 003.23-.56l-3-8.2z" fill="#505050"/><path data-name="パス 42" d="M458.56 4018.44a11 11 0 01-.59 4.1l-3 8.76a9.67 9.67 0 003.59-12.87z" fill="#505050"/><path data-name="パス 43" d="M450 4010.5a12.5 12.5 0 1012.5 12.5 12.5 12.5 0 00-12.5-12.5zm0 24a11.5 11.5 0 1111.5-11.5 11.5 11.5 0 01-11.5 11.5z" fill="#505050"/></g></g></svg>