<svg xmlns="http://www.w3.org/2000/svg" xmlns:xlink="http://www.w3.org/1999/xlink" width="60" height="60" viewBox="0 0 60 60">
  <defs>
    <clipPath id="clip-path">
      <circle id="楕円形_3" data-name="楕円形 3" cx="30" cy="30" r="30" transform="translate(420 3993)" fill="#fff" stroke="#707070" stroke-width="1"/>
    </clipPath>
  </defs>
  <g id="マスクグループ_1" data-name="マスクグループ 1" transform="translate(-420 -3993)" clip-path="url(#clip-path)">
    <g id="Xd" transform="translate(420 3993)">
      <g id="レイヤー_3" data-name="レイヤー 3">
        <rect id="長方形_26" data-name="長方形 26" width="60" height="60" fill="#f5eaea"/>
      </g>
      <g id="レイヤー_2" data-name="レイヤー 2">
        <path id="パス_38" data-name="パス 38" d="M32.48,31.15c0,2.17,2.16,1.61,2.16,1.61V29.54C34,29.45,32.48,29.4,32.48,31.15Z" fill="#505050"/>
        <path id="パス_39" data-name="パス 39" d="M39.72,17.5H20.28a2.79,2.79,0,0,0-2.78,2.78V39.72a2.79,2.79,0,0,0,2.78,2.78H39.72a2.79,2.79,0,0,0,2.78-2.78V20.28A2.79,2.79,0,0,0,39.72,17.5Zm-11,16.62-1.57-2.9-1.57,2.9H23.72l2.38-3.87-2.28-3.88h1.91l1.53,2.93,1.53-2.93h1.78l-2.3,3.78,2.45,4Zm7.59-.35c-4,1.44-5.22-.68-5.43-1.82a3.18,3.18,0,0,1,1.35-3.31,3.71,3.71,0,0,1,2.44-.47V25.75h1.64Z" fill="#505050"/>
      </g>
    </g>
  </g>
</svg>
